<svg xmlns="http://www.w3.org/2000/svg" width="18" height="18" fill="none"><path stroke="#fff" stroke-linecap="round" stroke-linejoin="round" stroke-width="1.3" d="M16.964 13v2.374a1.586 1.586 0 0 1-1.726 1.584 15.668 15.668 0 0 1-6.832-2.43 15.437 15.437 0 0 1-4.75-4.75 15.667 15.667 0 0 1-2.43-6.865A1.583 1.583 0 0 1 2.8 1.188h2.375a1.583 1.583 0 0 1 1.583 1.361c.1.76.286 1.507.554 2.225a1.583 1.583 0 0 1-.356 1.67L5.952 7.45a12.667 12.667 0 0 0 4.75 4.75l1.005-1.006a1.583 1.583 0 0 1 1.67-.356 10.17 10.17 0 0 0 2.225.554A1.583 1.583 0 0 1 16.964 13Z"/></svg>