<svg xmlns="http://www.w3.org/2000/svg" width="62" height="62" fill="none"><mask id="a" fill="#fff"><path d="M54.621 14.704c8.304 7.284 9.13 19.92 1.846 28.224l-10.36 11.81c-7.284 8.304-19.92 9.131-28.224 1.847L7.036 47.07c-8.304-7.283-9.13-19.92-1.847-28.223L15.55 7.035c7.284-8.304 19.92-9.13 28.224-1.846l10.848 9.515Z"/></mask><path fill="#FFD054" d="M61.215 7.187c12.456 10.926 13.696 29.88 2.77 42.336l-3.766 4.293C49.293 66.27 30.34 67.51 17.883 56.586c4.152 3.641 13.423-.138 20.707-8.442l10.36-11.81c3.642-4.152 3.228-10.47-.923-14.112L61.215 7.187ZM-8 33.88 28.738-8-8 33.88ZM15.55 7.035C26.474-5.42 45.43-6.66 57.884 4.265l3.33 2.922c12.456 10.926 13.696 29.88 2.77 42.336L48.95 36.333c3.642-4.151 3.228-10.47-.923-14.111l-10.848-9.516c-8.304-7.284-17.988-9.823-21.63-5.67Zm17.369 62.739L-8 33.88 32.92 69.774Z" mask="url(#a)"/></svg>