<svg xmlns="http://www.w3.org/2000/svg" width="20" height="20" fill="none"><path fill="#fff" fill-rule="evenodd" d="M10 16.667a6.667 6.667 0 1 0 0-13.334 6.667 6.667 0 0 0 0 13.334Zm0 1.666a8.333 8.333 0 1 0 0-16.666 8.333 8.333 0 0 0 0 16.666Z" clip-rule="evenodd"/><path fill="#fff" d="M12.895 17.817c-.296-2.109-.789-4.022-1.483-5.831-1.698.823-3.598 2.262-6.21 4.828a8.381 8.381 0 0 1-1.263-1.095c2.743-2.706 4.839-4.324 6.824-5.27a26.909 26.909 0 0 0-.824-1.636c-2.338.736-5.003 1.125-8.272 1.18 0-.572.058-1.13.168-1.67 2.885-.062 5.22-.396 7.24-.99-.938-1.504-2.037-2.989-3.3-4.517a8.29 8.29 0 0 1 1.568-.717c1.274 1.567 2.39 3.106 3.347 4.68 1.796-.71 3.388-1.668 4.978-2.888.408.38.779.799 1.105 1.253-1.653 1.278-3.34 2.315-5.249 3.096.281.525.545 1.055.791 1.594 1.889-.598 3.748-.66 5.977-.667a8.454 8.454 0 0 1 0 1.667c-2.154.008-3.75.069-5.328.543a27.727 27.727 0 0 1 1.5 5.661 8.3 8.3 0 0 1-1.569.779Z"/></svg>