<svg xmlns="http://www.w3.org/2000/svg" width="20" height="20" fill="none"><path fill="#fff" d="M9.936.623c-3.766 0-6.832 3.084-6.832 6.874 0 6.668 6.447 11.737 6.447 11.737a.619.619 0 0 0 .774 0s6.447-5.07 6.447-11.737c0-3.79-3.07-6.874-6.836-6.874Zm0 1.25c3.094 0 5.594 2.51 5.594 5.624 0 5.455-4.91 9.765-5.59 10.348-.677-.58-5.593-4.891-5.593-10.348 0-3.114 2.494-5.624 5.589-5.624Z"/><path fill="#fff" d="M9.936 4.374c-1.708 0-3.104 1.405-3.104 3.123 0 1.719 1.396 3.128 3.104 3.128 1.708 0 3.108-1.41 3.108-3.128 0-1.718-1.4-3.123-3.108-3.123Zm0 1.25a1.86 1.86 0 0 1 1.866 1.873 1.865 1.865 0 1 1-3.728 0c0-1.043.825-1.873 1.862-1.873Z"/></svg>