<svg xmlns="http://www.w3.org/2000/svg" width="20" height="20" fill="none"><path fill="#777E91" fill-rule="evenodd" d="M13.333 3.333H6.667a3.333 3.333 0 0 0-3.334 3.334v6.666a3.333 3.333 0 0 0 3.334 3.334h6.666a3.333 3.333 0 0 0 3.334-3.334V6.667a3.333 3.333 0 0 0-3.334-3.334ZM6.667 1.667a5 5 0 0 0-5 5v6.666a5 5 0 0 0 5 5h6.666a5 5 0 0 0 5-5V6.667a5 5 0 0 0-5-5H6.667Z" clip-rule="evenodd"/><path fill="#777E91" d="M14.167 6.667a.833.833 0 1 0 0-1.667.833.833 0 0 0 0 1.667Z"/><path fill="#777E91" fill-rule="evenodd" d="M14.167 10a4.167 4.167 0 1 1-8.334 0 4.167 4.167 0 0 1 8.334 0ZM12.5 10a2.5 2.5 0 1 1-5 0 2.5 2.5 0 0 1 5 0Z" clip-rule="evenodd"/></svg>