<svg width="552" height="244" fill="none" xmlns="http://www.w3.org/2000/svg"><path d="M186.667 118.596v-2h-4v2h4ZM4 118.596v-2H0v2h4Zm548 0v-2h-4v2h4Zm-182.667 0v-2h-4v2h4Zm-186.666 2.915v2h4v-2h-4Zm182.666 0v2h4v-2h-4Zm-182.666-2.915v31.092h4v-31.092h-4ZM4 149.688v-31.092H0v31.092h4Zm89.333 89.333C43.996 239.021 4 199.025 4 149.688H0c0 51.546 41.787 93.333 93.333 93.333v-4Zm89.334-89.333c0 49.337-39.996 89.333-89.334 89.333v4c51.547 0 93.334-41.787 93.334-93.333h-4ZM548 118.596v31.092h4v-31.092h-4Zm-178.667 31.092v-31.092h-4v31.092h4Zm89.334 89.333c-49.338 0-89.334-39.996-89.334-89.333h-4c0 51.546 41.787 93.333 93.334 93.333v-4ZM548 149.688c0 49.337-39.996 89.333-89.333 89.333v4c51.546 0 93.333-41.787 93.333-93.333h-4Zm-361.333-28.177V93.333h-4v28.178h4Zm178.666-28.178v28.178h4V93.333h-4ZM276 4c49.337 0 89.333 39.996 89.333 89.333h4C369.333 41.787 327.547 0 276 0v4Zm-89.333 89.333C186.667 43.996 226.663 4 276 4V0c-51.547 0-93.333 41.787-93.333 93.333h4Z" fill="#fff" fill-opacity=".25"/></svg>