<svg width="236" height="47" fill="none" xmlns="http://www.w3.org/2000/svg"><path fill-rule="evenodd" clip-rule="evenodd" d="M229.439 35.334c.142 1.62 1.437 3.68 3.681 3.68h1.312c.51 0 .926-.417.926-.926V9.22h-.006a.923.923 0 0 0-.92-.875h-4.066a.923.923 0 0 0-.92.875h-.007v2.346c-2.492-3.072-6.42-4.347-10.359-4.347-8.955 0-16.215 7.266-16.215 16.228 0 8.963 7.26 16.228 16.215 16.228 3.939 0 8.233-1.529 10.359-4.345v.003Zm-10.345-1.337c-5.695 0-10.311-4.723-10.311-10.55 0-5.824 4.616-10.547 10.311-10.547 5.697 0 10.313 4.723 10.313 10.548 0 5.826-4.616 10.549-10.313 10.549ZM197.724 36.328l-.002-14.937h.001c0-8.42-5.308-14.1-13.772-14.1-4.041 0-7.353 2.337-8.523 4.346-.252-1.57-1.086-3.221-3.669-3.221h-1.317a.928.928 0 0 0-.925.926V38.211h.005a.925.925 0 0 0 .92.876h4.067a.962.962 0 0 0 .183-.02c.027-.005.052-.015.078-.023.03-.009.062-.016.09-.028.037-.015.069-.035.103-.054.016-.01.034-.017.05-.028a.892.892 0 0 0 .113-.09l.019-.015a.897.897 0 0 0 .11-.127h.001a.922.922 0 0 0 .173-.49h.006V21.158c0-4.522 3.663-8.188 8.182-8.188s8.183 3.666 8.183 8.188l.003 14.253.001-.005.002.04v2.764h.006a.925.925 0 0 0 .92.876h4.067a.943.943 0 0 0 .182-.02c.024-.004.047-.014.07-.02.034-.01.068-.018.1-.03.033-.015.063-.034.095-.052.019-.01.039-.018.058-.03.037-.025.071-.055.105-.085l.027-.022a.986.986 0 0 0 .104-.12l.007-.008a.916.916 0 0 0 .172-.487l.001-.002h.005v-1.883h-.001ZM155.366 35.334c.142 1.62 1.437 3.68 3.68 3.68h1.313a.928.928 0 0 0 .925-.926V9.22h-.005a.926.926 0 0 0-.92-.875h-4.067a.926.926 0 0 0-.921.875h-.005v2.346c-2.492-3.072-6.421-4.347-10.361-4.347-8.955 0-16.214 7.266-16.214 16.228 0 8.963 7.259 16.228 16.214 16.228 3.94 0 8.234-1.529 10.36-4.345l.001.003Zm-10.345-1.337c-5.695 0-10.312-4.723-10.312-10.549 0-5.825 4.617-10.548 10.312-10.548 5.696 0 10.312 4.723 10.312 10.548 0 5.826-4.616 10.549-10.312 10.549ZM104.738 31.2c2.715 1.882 5.679 2.797 8.527 2.797 2.713 0 5.518-1.408 5.518-3.858 0-3.271-6.112-3.78-9.952-5.086-3.841-1.306-7.149-4.006-7.149-8.38 0-6.69 5.957-9.453 11.517-9.453 3.523 0 7.157 1.162 9.514 2.828.811.615.317 1.322.317 1.322l-2.249 3.215c-.253.362-.695.675-1.33.283-.634-.392-2.86-1.969-6.252-1.969-3.393 0-5.436 1.568-5.436 3.511 0 2.33 2.656 3.064 5.767 3.858 5.421 1.462 11.334 3.22 11.334 9.87 0 5.896-5.51 9.54-11.599 9.54-4.615 0-8.544-1.317-11.839-3.737-.686-.688-.207-1.326-.207-1.326l2.238-3.2c.456-.597 1.03-.389 1.281-.215ZM89.104 35.334c.142 1.62 1.437 3.68 3.68 3.68h1.313a.929.929 0 0 0 .926-.926V9.22h-.006a.925.925 0 0 0-.92-.875H90.03a.927.927 0 0 0-.921.875h-.005v2.346c-2.492-3.072-6.42-4.347-10.36-4.347-8.955 0-16.215 7.266-16.215 16.228 0 8.963 7.26 16.228 16.215 16.228 3.94 0 8.233-1.529 10.36-4.345v.003ZM78.76 33.997c-5.696 0-10.313-4.723-10.313-10.549 0-5.825 4.617-10.548 10.313-10.548 5.695 0 10.311 4.723 10.311 10.548 0 5.826-4.616 10.549-10.311 10.549Z" fill="#fff"/><path fill-rule="evenodd" clip-rule="evenodd" d="M39.797 24.552c-6.026 0-10.912 4.885-10.912 10.912 0 6.026 4.885 10.912 10.912 10.912 6.026 0 10.912-4.886 10.912-10.912 0-6.027-4.886-10.912-10.912-10.912Zm-28.35 0C5.421 24.553.535 29.438.535 35.465c0 6.026 4.886 10.912 10.912 10.912 6.027 0 10.912-4.886 10.912-10.912 0-6.027-4.885-10.911-10.912-10.911Zm25.086-13.64c0 6.027-4.885 10.912-10.911 10.912-6.027 0-10.912-4.886-10.912-10.912C14.71 4.886 19.595 0 25.622 0c6.026 0 10.911 4.886 10.911 10.912Z" fill="#F06A6A"/></svg>