<svg width="170" height="41" fill="none" xmlns="http://www.w3.org/2000/svg"><path d="M111.885 10.595c-3.589 0-7.138 1.54-9.838 4.579V.217h-5.348v25.185c0 8.178 6.628 14.807 14.807 14.807 8.178 0 14.806-6.63 14.806-14.807 0-8.179-6.258-14.807-14.427-14.807Zm-.389 23.905c-5.029 0-9.099-4.08-9.099-9.098 0-5.02 4.08-9.099 9.099-9.099 5.028 0 9.098 4.08 9.098 9.099s-4.07 9.098-9.098 9.098ZM78.722 10.595c-3.589 0-7.138 1.54-9.837 4.579V.217h-5.35v25.185c0 8.178 6.63 14.807 14.808 14.807s14.806-6.63 14.806-14.807c0-8.179-6.248-14.807-14.427-14.807Zm-.39 23.905c-5.028 0-9.097-4.08-9.097-9.098 0-5.02 4.079-9.099 9.098-9.099 5.029 0 9.098 4.08 9.098 9.099S83.36 34.5 78.333 34.5ZM34.353 27.96V11.361h5.74V27.91c0 4.23 2.449 6.939 6.578 6.939 4.179 0 6.578-2.61 6.578-6.939V11.363h5.79v16.596c0 7.668-4.65 12.208-12.368 12.208-7.519.01-12.318-4.69-12.318-12.208ZM136.662 39.529h-5.739V.217h5.739v39.312ZM169.156 27.681H147.19c.84 4.38 3.91 7.359 9.339 7.359 3.179 0 7.048-1.2 9.548-3.03l2.399 4.23c-2.869 2.139-7.408 3.908-12.157 3.908-10.538 0-15.077-7.358-15.077-14.766 0-4.23 1.299-7.719 3.969-10.488 2.659-2.77 6.159-4.18 10.388-4.18 4.019 0 7.358 1.25 9.918 3.81 2.559 2.56 3.859 5.999 3.859 10.388-.02.79-.07 1.73-.22 2.77Zm-21.976-4.699h16.387c-.47-4.439-3.759-7.308-7.988-7.308-4.329 0-7.559 2.929-8.399 7.308ZM15.196 10.595c-3.59 0-7.138 1.54-9.838 4.579V.217H0v25.185c0 8.178 6.629 14.807 14.807 14.807 8.179 0 14.807-6.63 14.807-14.807 0-8.179-6.248-14.807-14.417-14.807Zm-.39 23.905c-5.029 0-9.098-4.08-9.098-9.098 0-5.02 4.08-9.099 9.098-9.099 5.03 0 9.098 4.08 9.098 9.099S19.835 34.5 14.806 34.5Z" fill="#fff"/></svg>