<svg width="178" height="39" fill="none" xmlns="http://www.w3.org/2000/svg"><path d="M71.714 14.47h5.833c-.973-6.201-6.343-10.52-13.33-10.52-8.268 0-14.472 6.078-14.472 16.258 0 9.999 5.925 16.2 14.64 16.2 7.823 0 13.423-5.03 13.423-13.176v-3.794h-12.82v4.473h7.282c-.093 4.506-3.101 7.358-7.853 7.358-5.29 0-8.916-3.963-8.916-11.122 0-7.113 3.687-11.061 8.793-11.061 3.81 0 6.416 2.035 7.42 5.384ZM81.664 35.976h5.584V12.29h-5.584v23.685ZM84.48 8.527c1.775 0 3.224-1.36 3.224-3.024s-1.45-3.039-3.224-3.039c-1.774 0-3.239 1.357-3.239 3.04 0 1.682 1.44 3.023 3.229 3.023h.01ZM103.971 12.291h-4.676v-5.69h-5.584v5.69h-3.362v4.32h3.362v13.176c-.03 4.458 3.21 6.657 7.405 6.527a11.327 11.327 0 0 0 3.287-.556l-.942-4.368a6.78 6.78 0 0 1-1.633.217c-1.406 0-2.533-.494-2.533-2.747V16.598h4.676V12.29ZM108.293 35.975h19.639v-4.798h-13.914V4.38h-5.725v31.596ZM138.63 36.454c3.718 0 5.938-1.743 6.957-3.733h.184v3.255h5.377v-15.86c0-6.263-5.106-8.145-9.627-8.145-4.983 0-8.809 2.22-10.043 6.54l5.216.742c.553-1.62 2.128-3.009 4.865-3.009 2.594 0 4.012 1.327 4.012 3.657v.092c0 1.603-1.682 1.682-5.863 2.128-4.596.494-8.993 1.866-8.993 7.205-.015 4.66 3.393 7.128 7.915 7.128Zm1.836-4.096c-2.33 0-3.997-1.066-3.997-3.117 0-2.145 1.866-3.039 4.353-3.395 1.467-.2 4.398-.57 5.121-1.155v2.791c.015 2.63-2.115 4.868-5.477 4.868v.008ZM155.261 35.975h5.493v-3.733h.322c.881 1.729 2.717 4.15 6.791 4.15 5.584 0 9.765-4.429 9.765-12.233 0-7.9-4.304-12.188-9.781-12.188-4.181 0-5.925 2.514-6.775 4.227h-.235V4.38h-5.58v31.596Zm5.477-11.847c0-4.609 1.974-7.576 5.569-7.576 3.718 0 5.633 3.162 5.633 7.576s-1.943 7.682-5.633 7.682c-3.564 0-5.569-3.086-5.569-7.682Z" fill="#fff"/><path d="m39.219 15.203-.054-.144L33.737.9a1.434 1.434 0 0 0-2.712.146l-3.664 11.218H12.523L8.86 1.046A1.436 1.436 0 0 0 6.147.9L.723 15.062l-.056.14A10.078 10.078 0 0 0 4.01 26.85l.02.015.046.036 8.258 6.189 4.096 3.096 2.49 1.882a1.682 1.682 0 0 0 2.027 0l2.489-1.882 4.097-3.096 8.316-6.225.023-.017a10.079 10.079 0 0 0 3.347-11.645Z" fill="#E24329"/><path d="m39.217 15.203-.053-.144a18.307 18.307 0 0 0-7.298 3.283l-11.919 9.013 7.59 5.735 8.316-6.224.023-.018a10.078 10.078 0 0 0 3.341-11.645Z" fill="#FC6D26"/><path d="m12.333 33.09 4.097 3.096 2.489 1.882a1.681 1.681 0 0 0 2.028 0l2.489-1.882 4.096-3.096-7.589-5.736-7.61 5.736Z" fill="#FCA326"/><path d="M8.017 18.342a18.291 18.291 0 0 0-7.295-3.28l-.056.14A10.078 10.078 0 0 0 4.01 26.85l.02.015.046.036 8.258 6.19 7.594-5.736-11.911-9.013Z" fill="#FC6D26"/></svg>