<svg width="181" height="47" fill="none" xmlns="http://www.w3.org/2000/svg"><path d="M47.147 35.286V.051h5.474v13.891c1.724-2.568 4.31-3.852 7.757-3.853 2.94 0 5.213.87 6.819 2.611 1.606 1.74 2.409 4.166 2.409 7.275v15.311H64.13v-14.55c0-4.022-1.791-6.033-5.374-6.033-1.792 0-3.262.54-4.41 1.622-1.15 1.082-1.724 2.602-1.725 4.563v14.398h-5.475ZM95.48 32.245c-2.434 2.434-5.492 3.65-9.176 3.65s-6.752-1.216-9.202-3.65c-2.451-2.433-3.676-5.526-3.676-9.28 0-3.751 1.225-6.835 3.676-9.25 2.45-2.417 5.517-3.625 9.202-3.626 3.684 0 6.743 1.208 9.176 3.625 2.434 2.417 3.65 5.501 3.65 9.252 0 3.751-1.217 6.844-3.65 9.28Zm-14.373-3.093c1.3 1.521 3.033 2.282 5.197 2.282s3.896-.76 5.196-2.282c1.3-1.52 1.951-3.583 1.952-6.186 0-2.568-.659-4.613-1.977-6.134-1.318-1.522-3.042-2.282-5.171-2.282-2.164 0-3.896.752-5.197 2.256-1.301 1.504-1.952 3.557-1.952 6.159 0 2.604.65 4.667 1.952 6.187ZM111.801 35.895c-5.037 0-7.555-2.704-7.555-8.112V15.31h-3.801v-4.614h3.954l1.268-7.248h4.106v7.248h9.785v4.614h-9.785v12.32c0 2.265.828 3.397 2.484 3.397 1.555 0 2.957-1.42 4.208-4.26l4.259 2.181c-2.096 4.631-5.07 6.946-8.923 6.946Z" fill="#fff"/><path d="M122.484 46.541c-2.433 0-4.444-.675-6.033-2.027l2.028-4.31c.981 1.149 2.045 1.724 3.194 1.725 1.521 0 2.282-.98 2.282-2.94V10.697h5.474v28.39c0 2.637-.65 4.538-1.952 5.704-1.301 1.166-2.965 1.749-4.993 1.75Zm4.208-40.001c-.9.03-1.775-.298-2.433-.912a3.064 3.064 0 0 1-.963-2.333 3.154 3.154 0 0 1 .963-2.357 3.593 3.593 0 0 1 4.842 0 3.111 3.111 0 0 1 .988 2.357 3.06 3.06 0 0 1-.988 2.307 3.374 3.374 0 0 1-2.409.938ZM143.028 35.895c-2.806 0-5.079-.701-6.819-2.104-1.741-1.402-2.611-3.286-2.611-5.651 0-2.163.904-3.997 2.712-5.502 1.808-1.505 4.081-2.257 6.819-2.256 2.806 0 5.172.895 7.098 2.687v-2.992c0-1.757-.448-3.117-1.344-4.08-.896-.965-2.171-1.447-3.827-1.446-3.346 0-5.425 1.707-6.236 5.12l-5.02-1.064c.676-2.636 2.011-4.715 4.006-6.236 1.995-1.52 4.479-2.281 7.452-2.281 3.245 0 5.806.853 7.681 2.56 1.876 1.707 2.814 4.2 2.814 7.478v15.159h-5.323v-3.093c-1.792 2.468-4.259 3.702-7.402 3.701Zm1.013-4.056c2.433 0 4.495-1.216 6.186-3.65v-.761c-1.691-2.028-3.753-3.042-6.186-3.042-1.42 0-2.569.347-3.449 1.04a3.236 3.236 0 0 0-1.319 2.662 3.317 3.317 0 0 0 1.293 2.712c.864.693 2.023 1.04 3.476 1.04h-.001ZM161.08 35.286V10.697h5.323v4.259c1.352-3.11 3.684-4.664 6.997-4.664 1.959 0 3.582.642 4.867 1.926 1.285 1.285 1.927 3.008 1.926 5.172a12.036 12.036 0 0 1-.659 3.802l-5.019-.507c.103-.672.17-1.349.202-2.028 0-2.535-1.047-3.802-3.143-3.803-1.42 0-2.611.753-3.574 2.256-.963 1.505-1.445 3.49-1.445 5.958v12.218h-5.475Z" fill="#fff"/><path d="M12.954 14.46c4.08-2.267 9.668-5.372 9.668-14.41h-6.767c0 5.057-2.461 6.425-6.187 8.495-4.08 2.267-9.669 5.371-9.669 14.41h6.767c0-5.057 2.461-6.425 6.188-8.495ZM24.666 12.383c0 5.057-2.462 6.424-6.188 8.494C14.4 23.144 8.81 26.25 8.81 35.287h6.766c0-5.057 2.462-6.425 6.188-8.495 4.08-2.267 9.668-5.371 9.668-14.409h-6.766Z" fill="#FF3C00"/></svg>