<svg width="163" height="46" fill="none" xmlns="http://www.w3.org/2000/svg"><path d="M17.553 7.608v12.958H5.648V7.608H0v30.933h5.65V26.003H17.55v12.538h5.651V7.608h-5.65Zm23.732 20.935a4.674 4.674 0 1 1-9.35 0v-13.25h-5.358v13.25a10.024 10.024 0 0 0 20.047 0v-13.25h-5.339v13.25Zm39.71-11.885c0-2.717 1.796-3.578 3.763-3.578 1.588 0 3.682 1.208 5.054 2.673l3.509-4.137c-1.752-2.37-5.306-4.008-8.215-4.008-5.815 0-10.02 3.405-10.02 9.05 0 10.474 12.8 7.15 12.8 13.012 0 1.807-1.754 3.403-3.763 3.403-3.17 0-4.198-1.549-5.653-3.188l-3.896 4.05c2.492 3.058 5.566 4.612 9.246 4.612 5.524 0 9.967-3.446 9.967-8.834 0-11.627-12.802-8.014-12.802-13.055M160.186 33.6c-3.167 0-4.067-1.37-4.067-3.468v-9.288h4.923v-4.706h-4.923v-6.21l-5.434 2.44v18.919c0 4.839 3.339 7.278 7.917 7.278.718.012 1.437-.046 2.143-.172l1.326-4.88c-.598.041-1.284.082-1.885.082M61.685 15.447c-2.654 0-4.508.77-6.3 2.528V7.793H50.02v18.872c0 7.064 5.107 11.905 10.846 11.905 6.367 0 11.967-4.926 11.967-11.56 0-6.55-5.154-11.558-11.147-11.558m-.034 17.716a6.09 6.09 0 1 1 0-12.18 6.09 6.09 0 0 1 0 12.18Zm58.318-6.438c0-6.645-5.588-11.56-11.967-11.56-5.738 0-10.847 4.84-10.847 11.905v18.883h5.367V35.763c1.789 1.753 3.645 2.527 6.296 2.527 5.994 0 11.15-5.009 11.15-11.56m-5.081-.068a6.092 6.092 0 1 1-12.183 0 6.092 6.092 0 0 1 12.183 0Z" fill="#fff"/><path d="M137.309 14.91V9.518a4.151 4.151 0 0 0 2.395-3.743V5.65a4.153 4.153 0 0 0-4.153-4.153h-.124a4.153 4.153 0 0 0-4.153 4.153v.124a4.155 4.155 0 0 0 2.395 3.743v5.393a11.764 11.764 0 0 0-5.592 2.461l-14.789-11.52c.105-.38.16-.771.166-1.164a4.682 4.682 0 0 0-2.88-4.329 4.679 4.679 0 1 0-1.804 8.998 4.63 4.63 0 0 0 2.304-.627l14.563 11.333a11.8 11.8 0 0 0 .181 13.287l-4.43 4.43a3.803 3.803 0 0 0-1.107-.18 3.838 3.838 0 0 0-3.547 2.374 3.84 3.84 0 0 0 5.019 5.02 3.84 3.84 0 0 0 2.373-3.547 3.75 3.75 0 0 0-.18-1.108l4.382-4.384a11.819 11.819 0 0 0 18.076-4.724 11.823 11.823 0 0 0-.546-10.39 11.816 11.816 0 0 0-8.549-5.93Zm-1.816 17.737a6.065 6.065 0 0 1-6.229-6.06 6.065 6.065 0 0 1 3.858-5.648 6.066 6.066 0 0 1 2.371-.413 6.064 6.064 0 0 1 4.152 10.267 6.061 6.061 0 0 1-4.146 1.85" fill="#FF7A59"/></svg>