<svg width="146" height="40" fill="none" xmlns="http://www.w3.org/2000/svg"><path d="M2 33c.187 0 .373-.187.56-.56.187-.373.28-.987.28-1.84V11.4c0-.853-.093-1.453-.28-1.8-.187-.373-.373-.573-.56-.6h23.36v1.2l.8 4.64c-.667-.293-1.84-.6-3.52-.92-1.68-.347-3.707-.52-6.08-.52h-5.92c-.8 0-1.28.067-1.44.2-.133.107-.2.44-.2 1v2.96c0 .587.067.933.2 1.04.16.107.627.16 1.4.16h5.76c1.547 0 2.787-.08 3.72-.24.96-.187 1.587-.373 1.88-.56a178.38 178.38 0 0 0-.36 1.76c-.133.667-.24 1.307-.32 1.92-.08.613-.12 1.12-.12 1.52H10.6c-.773 0-1.24.053-1.4.16-.133.08-.2.427-.2 1.04v2.96c0 .613.067.973.2 1.08.133.107.6.16 1.4.16h10.8c1.547 0 2.787-.173 3.72-.52.96-.373 1.587-.733 1.88-1.08l-.8 4.8V33H2Zm36.252.4c-2.373 0-4.24-.427-5.6-1.28a7 7 0 0 1-2.84-3.48c-.533-1.467-.8-3.12-.8-4.96 0-1.867.267-3.533.8-5a7 7 0 0 1 2.84-3.48c1.36-.88 3.227-1.32 5.6-1.32.8 0 1.52.067 2.16.2.667.133 1.254.32 1.76.56.534.213 1 .493 1.4.84l.08-.04-.08-.76V7.8c0-.853-.093-1.453-.28-1.8-.16-.373-.333-.573-.52-.6h6.48v25.2c0 .853.08 1.467.24 1.84.187.373.374.56.56.56h-6.48v-.52l.12-.76-.12-.04a6.7 6.7 0 0 1-1.4.92 8.385 8.385 0 0 1-1.8.56 8.74 8.74 0 0 1-2.12.24Zm.68-4.04c.88 0 1.614-.133 2.2-.4.614-.267 1.094-.64 1.44-1.12.374-.507.627-1.107.76-1.8.16-.72.24-1.507.24-2.36s-.08-1.627-.24-2.32c-.16-.72-.413-1.333-.76-1.84a3.189 3.189 0 0 0-1.44-1.2c-.586-.293-1.32-.44-2.2-.44-1.28 0-2.32.44-3.12 1.32-.773.88-1.16 2.387-1.16 4.52 0 1.413.174 2.533.52 3.36.347.827.84 1.413 1.48 1.76s1.4.52 2.28.52ZM61.91 33.4c-1.546 0-2.866-.267-3.96-.8-1.093-.56-1.92-1.507-2.48-2.84-.56-1.36-.84-3.24-.84-5.64v-7.44c0-.853-.093-1.467-.28-1.84-.16-.373-.333-.56-.52-.56h7.36c-.186 0-.386.187-.6.56-.186.373-.28.987-.28 1.84v8c0 1.68.307 2.88.92 3.6.64.72 1.374 1.08 2.2 1.08 1.174 0 2.08-.267 2.72-.8.64-.56 1.094-1.28 1.36-2.16.267-.907.4-1.853.4-2.84v-6.88c0-.853-.093-1.453-.28-1.8-.16-.373-.333-.573-.52-.6h6.48V30.6c0 .853.08 1.467.24 1.84.187.373.374.56.56.56h-6.48v-1.56l.08-.8-.08-.08c-.266.4-.6.773-1 1.12a7.15 7.15 0 0 1-1.36.92 7.766 7.766 0 0 1-1.68.56 7.74 7.74 0 0 1-1.96.24Z" fill="#D9ECFF"/><path d="M87.978 33.4c-2.106 0-3.866-.213-5.28-.64-1.386-.453-2.493-1.093-3.32-1.92-.826-.853-1.413-1.88-1.76-3.08-.346-1.2-.52-2.56-.52-4.08 0-3.013.84-5.4 2.52-7.16 1.68-1.76 4.254-2.64 7.72-2.64 2.027 0 3.667.28 4.92.84 1.28.56 2.254 1.307 2.92 2.24a8.194 8.194 0 0 1 1.36 3.12c.267 1.12.4 2.253.4 3.4v1.88c0-.08-.373-.16-1.12-.24-.72-.107-1.946-.16-3.68-.16h-9.28c0 1.467.44 2.573 1.32 3.32.907.72 2.374 1.08 4.4 1.08 1.707 0 3.227-.2 4.56-.6 1.36-.427 2.347-.827 2.96-1.2v1.2l.4 3.04c-.506.347-1.48.707-2.92 1.08-1.44.347-3.306.52-5.6.52Zm-3.64-11.88h6.92a3.96 3.96 0 0 0-.4-1.72c-.24-.56-.64-1.013-1.2-1.36-.56-.373-1.333-.56-2.32-.56-.986 0-1.786.147-2.4.44-.586.293-1.026.653-1.32 1.08a2.46 2.46 0 0 0-.4 1.32c0 .267.08.467.24.6.16.133.454.2.88.2ZM100.315 33c.186 0 .36-.187.52-.56.186-.373.28-.987.28-1.84V17.08c0-.853-.094-1.453-.28-1.8-.16-.373-.334-.573-.52-.6 1.173 0 2.373-.08 3.6-.24 1.226-.187 2.186-.373 2.88-.56v1.6l-.08.68.08.08c.186-.293.48-.613.88-.96.426-.373.96-.693 1.6-.96.666-.293 1.44-.44 2.32-.44 1.306 0 2.466.187 3.48.56 1.013.347 1.733.707 2.16 1.08l-1.2 5.36v1.2c-.4-.56-.947-1.133-1.64-1.72a9.915 9.915 0 0 0-2.24-1.48c-.8-.4-1.627-.6-2.48-.6-.96 0-1.68.347-2.16 1.04-.48.693-.72 1.787-.72 3.28v8c0 .853.08 1.467.24 1.84.186.373.373.56.56.56h-7.28Zm26.001.4c-2.4 0-4.32-.467-5.76-1.4-1.413-.96-2.12-2.493-2.12-4.6 0-1.467.373-2.653 1.12-3.56.747-.907 1.76-1.573 3.04-2 1.307-.453 2.787-.68 4.44-.68 1.227 0 2.267.107 3.12.32.88.213 1.587.44 2.12.68.533.24.88.413 1.04.52 0-1.12-.12-2.027-.36-2.72-.24-.72-.68-1.24-1.32-1.56-.613-.347-1.48-.52-2.6-.52-1.627 0-3.067.16-4.32.48-1.253.32-2.28.693-3.08 1.12-.773.427-1.307.787-1.6 1.08v-1.2l-.4-3.92c.187-.107.68-.28 1.48-.52.8-.24 1.893-.467 3.28-.68 1.387-.24 3.04-.36 4.96-.36 2.64 0 4.653.387 6.04 1.16 1.387.747 2.333 1.827 2.84 3.24.533 1.413.8 3.12.8 5.12v7.2c0 .747.08 1.293.24 1.64.187.32.373.573.56.76h-6.48v-.84l.08-.76-.08-.08c-.213.24-.52.48-.92.72s-.893.467-1.48.68a15.44 15.44 0 0 1-2.04.48c-.773.133-1.64.2-2.6.2Zm1.88-4.04c1.12 0 2.053-.08 2.8-.24.773-.187 1.36-.427 1.76-.72.4-.32.6-.693.6-1.12 0-.613-.467-1.12-1.4-1.52-.907-.4-2.147-.6-3.72-.6-1.52 0-2.6.213-3.24.64-.613.427-.92.96-.92 1.6 0 .8.36 1.333 1.08 1.6.72.24 1.733.36 3.04.36Z" fill="#FFD054"/></svg>