<svg width="170" height="52" fill="none" xmlns="http://www.w3.org/2000/svg"><path d="M51.168 22.899H35.581l13.498-7.792-2.676-4.638-13.5 7.792 7.791-13.495-4.638-2.677-7.793 13.492V0h-5.358v15.582L15.112 2.09l-4.64 2.677 7.792 13.492-13.497-7.79-2.678 4.639 13.498 7.792H0v5.355h15.586L2.089 36.046l2.677 4.638 13.5-7.792-7.794 13.495 4.638 2.677 7.795-13.494v15.581h5.358V35.236L36.2 48.98l4.35-2.51-7.94-13.746 13.79 7.96 2.678-4.639-13.497-7.792h15.585V22.9h.002Zm-25.584 9.957a7.28 7.28 0 0 1-7.283-7.281 7.28 7.28 0 0 1 7.281-7.283 7.283 7.283 0 0 1 .002 14.564ZM64.977 44.285V6.866h6.868v37.42h-6.868Zm65.871-25.429h6.557v3.103c1.395-2.48 4.65-3.826 7.437-3.826 3.462 0 6.249 1.5 7.54 4.237 2.012-3.103 4.699-4.237 8.056-4.237 4.699 0 9.191 2.843 9.191 9.665v16.487h-6.66V29.194c0-2.74-1.344-4.808-4.495-4.808-2.944 0-4.701 2.276-4.701 5.016v14.885h-6.813V29.194c0-2.74-1.395-4.808-4.494-4.808-2.996 0-4.752 2.225-4.752 5.016v14.885h-6.866v-25.43ZM87.366 45.022c-7.738 0-13.34-5.741-13.34-13.451 0-7.588 5.585-13.463 13.34-13.463 7.792 0 13.34 5.93 13.34 13.463 0 7.655-5.606 13.45-13.34 13.45Zm0-20.69a7.247 7.247 0 0 0-7.236 7.24 7.246 7.246 0 0 0 7.236 7.242 7.246 7.246 0 0 0 7.234-7.242 7.247 7.247 0 0 0-7.234-7.24Zm28.008 20.69c-7.737 0-13.34-5.741-13.34-13.451 0-7.588 5.586-13.463 13.34-13.463 7.792 0 13.341 5.93 13.341 13.463 0 7.655-5.61 13.45-13.341 13.45Zm0-20.778a7.332 7.332 0 0 0-7.319 7.325 7.328 7.328 0 0 0 7.319 7.325 7.33 7.33 0 0 0 7.32-7.325 7.33 7.33 0 0 0-7.32-7.325Z" fill="#fff"/></svg>