<svg width="41" height="41" fill="none" xmlns="http://www.w3.org/2000/svg"><path d="M5.125 16.834a3.167 3.167 0 0 1 3.167-3.167c1.2 0 2.297-.678 2.834-1.751l1.435-2.871c.538-1.076.807-1.614 1.29-1.913.484-.299 1.085-.299 2.288-.299h8.722c1.203 0 1.804 0 2.288.3.483.298.752.836 1.29 1.912l1.436 2.87a3.167 3.167 0 0 0 2.833 1.752 3.167 3.167 0 0 1 3.167 3.167v11.333c0 2.828 0 4.242-.879 5.121-.878.879-2.293.879-5.121.879h-18.75c-2.828 0-4.243 0-5.121-.879-.879-.879-.879-2.293-.879-5.121V16.834Z" stroke="#2F2B6D" stroke-width="3"/><path d="M25.833 22.208a5.333 5.333 0 1 1-10.666 0 5.333 5.333 0 0 1 10.666 0Z" stroke="#2F2B6D" stroke-width="3"/></svg>