<svg width="41" height="41" fill="none" xmlns="http://www.w3.org/2000/svg"><path d="m34.803 8.194-1.247.833 1.247-.833Zm0 20.392-1.247-.834 1.247.834Zm-2.155 2.154-.833-1.247.833 1.247Zm-8.243 1.314-.007-1.5a1.5 1.5 0 0 0-1.493 1.5h1.5Zm0 .002 1.341.671a1.5 1.5 0 0 0 .159-.67h-1.5Zm-3.01 6.021 1.341.67-1.342-.67Zm-4.8-6.02h-1.5c0 .232.054.462.159.67l1.341-.67Zm0-.003h1.5a1.5 1.5 0 0 0-1.493-1.5l-.007 1.5ZM8.352 30.74l.833-1.247-.833 1.247Zm-2.155-2.154 1.247-.834-1.247.834Zm0-20.392L4.95 7.36l1.247.834Zm2.155-2.155-.834-1.247.834 1.247Zm24.296 0-.833 1.247.833-1.247Zm4.971 12.35c0-2.71.002-4.856-.172-6.567-.177-1.736-.547-3.19-1.397-4.462l-2.494 1.667c.466.697.754 1.6.906 3.099.155 1.523.157 3.49.157 6.264h3ZM36.05 29.42c.85-1.273 1.22-2.726 1.397-4.462.174-1.71.172-3.857.172-6.567h-3c0 2.773-.002 4.74-.157 6.264-.152 1.498-.44 2.4-.906 3.098l2.494 1.667Zm-2.568 2.568a9.31 9.31 0 0 0 2.568-2.568l-2.494-1.667a6.308 6.308 0 0 1-1.741 1.741l1.667 2.494Zm-9.07 1.567c2.099-.01 3.823-.05 5.254-.247 1.456-.201 2.704-.577 3.816-1.32l-1.667-2.494c-.61.407-1.376.679-2.56.842-1.207.167-2.743.21-4.857.219l.013 3Zm1.493-1.498v-.002h-3v.002h3Zm-3.169 6.692 3.01-6.02-2.683-1.343-3.01 6.021 2.683 1.342Zm-4.472 0c.921 1.843 3.55 1.843 4.472 0l-2.683-1.342a.5.5 0 0 1 .894 0l-2.683 1.342Zm-3.01-6.02 3.01 6.02 2.683-1.342-3.01-6.02-2.683 1.341Zm-.159-.674v.002h3v-.002h-3Zm-7.577-.067c1.112.743 2.36 1.119 3.816 1.32 1.43.198 3.155.237 5.255.247l.013-3c-2.114-.01-3.65-.052-4.858-.219-1.183-.163-1.95-.435-2.559-.842l-1.667 2.494ZM4.95 29.42a9.31 9.31 0 0 0 2.568 2.568l1.667-2.494a6.308 6.308 0 0 1-1.74-1.74L4.95 29.418Zm-1.57-11.03c.001 2.712 0 4.858.173 6.568.177 1.736.547 3.19 1.397 4.462l2.494-1.667c-.466-.697-.754-1.6-.906-3.098-.155-1.524-.157-3.491-.157-6.264h-3ZM4.95 7.36c-.85 1.273-1.22 2.726-1.397 4.462-.174 1.71-.172 3.857-.172 6.568h3c0-2.774.002-4.74.157-6.264.152-1.499.44-2.402.906-3.099L4.95 7.36Zm2.568-2.568A9.31 9.31 0 0 0 4.95 7.36l2.494 1.667a6.31 6.31 0 0 1 1.741-1.74L7.518 4.791Zm11.03-1.569c-2.711 0-4.857-.002-6.568.172-1.736.177-3.19.547-4.462 1.397l1.667 2.494c.697-.466 1.6-.754 3.099-.906 1.523-.155 3.49-.157 6.264-.157v-3Zm3.904 0h-3.904v3h3.904v-3Zm11.03 1.569c-1.273-.85-2.726-1.22-4.462-1.397-1.71-.174-3.857-.172-6.568-.172v3c2.774 0 4.74.002 6.264.157 1.499.152 2.402.44 3.099.906l1.667-2.494ZM36.05 7.36a9.31 9.31 0 0 0-2.568-2.568l-1.667 2.494a6.31 6.31 0 0 1 1.74 1.741L36.05 7.36Z" fill="#2F2B6D"/><circle cx="28.309" cy="18.548" r="1.952" fill="#2F2B6D" stroke="#2F2B6D" stroke-linecap="round"/><circle cx="20.5" cy="18.548" r="1.952" fill="#2F2B6D" stroke="#2F2B6D" stroke-linecap="round"/><circle cx="12.691" cy="18.548" r="1.952" fill="#2F2B6D" stroke="#2F2B6D" stroke-linecap="round"/></svg>