<svg width="48" height="48" fill="none" xmlns="http://www.w3.org/2000/svg"><path d="m24 8-14 6 14 6 14-6-14-6Z" stroke="#2F2B6D" stroke-width="3" stroke-linejoin="round"/><path fill-rule="evenodd" clip-rule="evenodd" d="m17.224 19.272-7.815 3.35a1.5 1.5 0 0 0 0 2.757l14 6a1.5 1.5 0 0 0 1.182 0l14-6a1.5 1.5 0 0 0 0-2.758l-7.815-3.349-3.808 1.632L34.192 24 24 28.368 13.808 24l7.224-3.096-3.808-1.632Zm5.077-2.176 1.108-.475a1.5 1.5 0 0 1 1.182 0l1.108.475-1.699.728-1.699-.728Z" fill="#2F2B6D"/><path fill-rule="evenodd" clip-rule="evenodd" d="m17.224 29.272-7.815 3.35a1.5 1.5 0 0 0 0 2.757l14 6a1.5 1.5 0 0 0 1.182 0l14-6a1.5 1.5 0 0 0 0-2.758l-7.815-3.349-3.808 1.632L34.192 34 24 38.368 13.808 34l7.224-3.096-3.808-1.632Zm5.077-2.176 1.108-.475a1.5 1.5 0 0 1 1.182 0l1.108.475-1.699.728-1.699-.728Z" fill="#2F2B6D"/></svg>