<svg width="44" height="43" fill="none" xmlns="http://www.w3.org/2000/svg"><rect x="7.944" y="28.213" width="28.093" height="7.023" rx="3.512" stroke="#2F2B6D" stroke-width="2"/><path d="m8.853 19.043 6.114 9.17h14.047l6.114-9.17c.435-.653.653-.98.617-1.336-.035-.355-.312-.633-.867-1.188L21.99 3.632 9.103 16.519c-.555.555-.832.833-.868 1.188-.035.356.183.683.618 1.336Z" stroke="#2F2B6D" stroke-width="2"/><path d="M26.258 19.434a4.268 4.268 0 1 1-8.535 0 4.268 4.268 0 0 1 8.535 0ZM21.99 3.632v12.29" stroke="#2F2B6D" stroke-width="2"/></svg>