<svg width="42" height="42" fill="none" xmlns="http://www.w3.org/2000/svg"><path d="m27.125 18.375-5.25 5.25-3.5-3.5-5.25 5.25" stroke="#2F2B6D" stroke-width="3" stroke-linecap="round" stroke-linejoin="round"/><path d="M24.5 8.75H10.2c-1.12 0-1.68 0-2.108.218a2 2 0 0 0-.874.874C7 10.27 7 10.83 7 11.95V31.8c0 1.12 0 1.68.218 2.108a2 2 0 0 0 .874.874C8.52 35 9.08 35 10.2 35h19.85c1.12 0 1.68 0 2.108-.218a2 2 0 0 0 .874-.874c.218-.428.218-.988.218-2.108V17.5" stroke="#2F2B6D" stroke-width="3" stroke-linecap="round"/><circle cx="33.25" cy="8.75" fill="#2F2B6D" r="3.5"/></svg>